<!-- Generated by IcoMoon.io -->
<svg version="1.1" xmlns="http://www.w3.org/2000/svg" width="32" height="32" viewBox="0 0 32 32">
<title>nuclear-reactor-svgrepo-com</title>
<path d="M17.777 19.214c-0.583 0.228-1.165 0.343-1.747 0.344-0.582-0.001-1.164-0.115-1.747-0.344-0.393-0.154-0.839 0.001-1.049 0.366-1.592 2.759-3.187 5.524-4.785 8.293-0.242 0.419-0.088 0.956 0.341 1.18 2.289 1.192 4.764 1.788 7.24 1.79 2.476-0.001 4.951-0.598 7.24-1.79 0.429-0.223 0.583-0.761 0.341-1.18-1.598-2.769-3.193-5.534-4.785-8.293-0.211-0.365-0.657-0.52-1.049-0.366z"></path>
<path d="M8.442 1.583c-0.243-0.421-0.789-0.554-1.197-0.291-0.058 0.038-0.117 0.076-0.174 0.114-2.574 1.719-4.525 3.968-5.771 6.813-0.523 1.194-0.882 2.437-1.096 3.723-0.099 0.594-0.166 1.244-0.202 1.878-0.027 0.487 0.362 0.897 0.851 0.897h9.572c0.419 0 0.775-0.305 0.841-0.719 0.197-1.236 0.787-2.242 1.768-3.028 0.328-0.263 0.416-0.727 0.205-1.091l-4.796-8.297z"></path>
<path d="M30.7 8.219c-1.246-2.845-3.196-5.094-5.771-6.813-0.058-0.039-0.116-0.077-0.174-0.114-0.409-0.263-0.954-0.13-1.197 0.291l-4.796 8.297c-0.211 0.364-0.123 0.828 0.205 1.091 0.98 0.786 1.571 1.792 1.768 3.028 0.066 0.414 0.422 0.719 0.841 0.719h9.572c0.488 0 0.878-0.41 0.851-0.897-0.036-0.634-0.103-1.284-0.202-1.878-0.214-1.286-0.573-2.529-1.096-3.723z"></path>
<path d="M16.029 11.68c-1.69-0.006-3.053 1.347-3.062 3.038-0.009 1.67 1.357 3.048 3.030 3.055 0.011 0 0.022-0 0.033-0 1.676-0.010 3.028-1.363 3.033-3.045 0.005-1.676-1.354-3.043-3.033-3.048z"></path>
</svg>
